HIERARCHY
ROOT root
{
	OFFSET	0	13.1	24.9
	CHANNELS 6  Xposition Yposition Zposition Xrotation Yrotation Zrotation
	JOINT spine_1
	{
		OFFSET	0	9.99999	0
		CHANNELS 3  Xrotation Yrotation Zrotation
		JOINT spine_2
		{
			OFFSET	0	112	-10
			CHANNELS 3  Xrotation Yrotation Zrotation
			JOINT spine_3
			{
				OFFSET	0	206.5	19.3
				CHANNELS 3  Xrotation Yrotation Zrotation
				JOINT spine_4
				{
					OFFSET	0	110.4	14.6
					CHANNELS 3  Xrotation Yrotation Zrotation
					JOINT neck_1
					{
						OFFSET	0	71.8	-50.3
						CHANNELS 3  Xrotation Yrotation Zrotation
						JOINT neck_2
						{
							OFFSET	0	86.2	-25.8
							CHANNELS 3  Xrotation Yrotation Zrotation
							JOINT head_ee
							{
								OFFSET	0	179.8	-8.7
								CHANNELS 3  Xrotation Yrotation Zrotation
								End Site
								{
									OFFSET	1	0	0
								}
							}
						}
					}
					JOINT left_clavicle
					{
						OFFSET	-43.2	22.4	-70.8
						CHANNELS 3  Xrotation Yrotation Zrotation
						JOINT left_shoulder
						{
							OFFSET	-93.9	-5.79999	48.7
							CHANNELS 3  Xrotation Yrotation Zrotation
							JOINT left_elbow
							{
								OFFSET	-291.4	-30.8	15.2
								CHANNELS 3  Xrotation Yrotation Zrotation
								JOINT left_lowarm_twist
								{
									OFFSET	-110.7	-3.89999	13.6
									CHANNELS 3  Xrotation Yrotation Zrotation
									JOINT left_hand
									{
										OFFSET	-110.7	-3.89999	13.6
										CHANNELS 3  Xrotation Yrotation Zrotation
										JOINT left_ee
										{
											OFFSET	-80.8	-5.10001	12.1
											CHANNELS 3  Xrotation Yrotation Zrotation
											End Site
											{
												OFFSET	1	0	0
											}
										}
									}
								}
							}
						}
					}
					JOINT right_clavicle
					{
						OFFSET	43.2	22.4	-70.8
						CHANNELS 3  Xrotation Yrotation Zrotation
						JOINT right_shoulder
						{
							OFFSET	93.9	-5.79999	48.7
							CHANNELS 3  Xrotation Yrotation Zrotation
							JOINT right_elbow
							{
								OFFSET	291.4	-30.8	15.2
								CHANNELS 3  Xrotation Yrotation Zrotation
								JOINT right_lowarm_twist
								{
									OFFSET	110.7	-3.89999	13.6
									CHANNELS 3  Xrotation Yrotation Zrotation
									JOINT right_hand
									{
										OFFSET	110.7	-3.89999	13.6
										CHANNELS 3  Xrotation Yrotation Zrotation
										JOINT right_ee
										{
											OFFSET	80.8	-5.10001	12.1
											CHANNELS 3  Xrotation Yrotation Zrotation
											End Site
											{
												OFFSET	1	0	0
											}
										}
									}
								}
							}
						}
					}
				}
			}
		}
	}
	JOINT left_hip
	{
		OFFSET	-82.8	-127.5	0.300001
		CHANNELS 3  Xrotation Yrotation Zrotation
		JOINT left_knee
		{
			OFFSET	-28.2	-396.7	2.2
			CHANNELS 3  Xrotation Yrotation Zrotation
			JOINT left_ankle
			{
				OFFSET	-11.7	-411.3	35.4
				CHANNELS 3  Xrotation Yrotation Zrotation
				JOINT left_toes
				{
					OFFSET	0	-60	-88.6
					CHANNELS 3  Xrotation Yrotation Zrotation
					JOINT left_foot_ee
					{
						OFFSET	-22.5	-16.5	-42.2
						CHANNELS 3  Xrotation Yrotation Zrotation
						End Site
						{
							OFFSET	1	0	0
						}
					}
				}
			}
		}
	}
	JOINT right_hip
	{
		OFFSET	82.8	-127.5	0.300001
		CHANNELS 3  Xrotation Yrotation Zrotation
		JOINT right_knee
		{
			OFFSET	28.2	-396.7	2.2
			CHANNELS 3  Xrotation Yrotation Zrotation
			JOINT right_ankle
			{
				OFFSET	11.7	-411.3	35.4
				CHANNELS 3  Xrotation Yrotation Zrotation
				JOINT right_toes
				{
					OFFSET	0	-60	-88.6
					CHANNELS 3  Xrotation Yrotation Zrotation
					JOINT right_foot_ee
					{
						OFFSET	22.5	-16.5	-42.2
						CHANNELS 3  Xrotation Yrotation Zrotation
						End Site
						{
							OFFSET	1	0	0
						}
					}
				}
			}
		}
	}
}
MOTION
Frames: 6
Frame Time: 0.02
2699.77 679.956 -876.663 -39.9395 69.0635 39.5158 4.4124 -0.121987 -1.44033 4.41355 -0.0300973 -1.44517 4.41351 0.164319 -1.43612 4.41064 -0.0645267 -1.44405 -6.24614 6.391 10.2183 -5.9651 4.30244 11.4885 -0.0 0.0 -0.0 4.89646 -10.9022 8.91292 -35.1304 1.83397 90.7018 0.187989 -5.3204 0.0087344 -0.589549 -0.0211452 0.0723204 -0.305803 -19.9874 -10.5522 -0.0 0.0 -0.0 8.13729 -0.677011 -15.8486 -0.804834 25.4185 -54.8248 1.49823 36.5797 -0.495224 -22.2773 1.29225 -2.52045 -2.46847 9.74982 21.2788 0.0 0.0 0.0 36.8034 -17.1244 0.778554 4.13392 -0.192175 -0.605024 -15.2944 -2.36147 2.33681 12.7999 -0.0 -0.0 -0.0 0.0 -0.0 3.0824 -3.6276 -3.02818 -21.9594 -0.267216 -3.33865 24.8944 -5.771 3.31887 21.1378 -0.0 -0.0 0.0 0.0 0.0 
2673.28 680.681 -877.208 -36.2278 68.4696 36.1697 4.31159 -0.0470137 -1.65438 4.31312 0.0583396 -1.65402 4.31042 0.282994 -1.63068 4.30671 0.0219437 -1.6549 -6.57986 7.10289 11.3738 -6.23167 4.84109 12.7789 -0.0 0.0 -0.0 5.10241 -10.4071 9.37558 -31.6335 4.14913 88.7082 0.192574 -5.44942 0.0091648 -0.264132 -0.0093813 0.0324278 -0.236237 -19.7258 -9.97531 -0.0 0.0 -0.0 8.24274 -0.796354 -16.0566 -2.98236 24.3229 -54.5194 1.43362 35.3793 -0.457263 -22.9758 1.34811 -2.59037 -2.36842 11.0995 21.1543 0.0 0.0 0.0 36.4564 -17.567 0.546969 0.724414 -0.0305074 -0.106979 -17.6079 -3.41636 2.70473 11.2676 -0.0 -0.0 -0.0 0.0 -0.0 2.39272 -1.5712 -2.67439 -22.5495 -0.25665 -3.42859 23.8928 -6.60565 3.20138 21.2297 -0.0 -0.0 0.0 0.0 0.0 
2642.19 684.255 -870.603 -33.7286 67.4237 34.2117 4.29419 -0.128596 -2.26261 4.29704 0.015603 -2.26621 4.29454 0.324682 -2.2429 4.28752 -0.0335222 -2.26602 -6.233 6.70295 9.15782 -6.00984 5.66563 10.4788 -0.0 0.0 -0.0 5.07954 -9.74878 9.36784 -27.6597 5.71756 87.2534 0.432317 -12.0879 0.045774 0.0796746 0.00280067 -0.00978999 -0.117208 -20.0919 -9.33029 -0.0 0.0 -0.0 8.38505 0.106597 -16.3637 -4.91898 22.0777 -52.1875 1.28432 32.4636 -0.373916 -23.126 1.36023 -2.60531 -2.182 10.49 19.5477 0.0 0.0 0.0 36.5582 -18.9132 1.49796 -2.9893 0.111486 0.445163 -15.3216 0.179946 2.32309 11.9888 -0.0 -0.0 -0.0 0.0 -0.0 1.93133 0.146755 -1.65651 -23.9802 -0.227193 -3.64616 22.881 -4.89228 3.08318 21.9191 -0.0 -0.0 0.0 0.0 0.0 
2611.48 690.086 -879.11 -32.8343 66.2998 33.561 4.21108 -0.464662 -2.34169 4.21408 -0.314756 -2.36649 4.22516 0.0137221 -2.38728 4.21739 -0.36337 -2.35952 -5.23753 7.60099 8.99949 -5.02252 7.24239 10.4636 -0.0 0.0 -0.0 5.28082 -9.335 9.81153 -27.8324 4.7948 86.6171 0.38424 -10.777 0.0362439 -0.313151 -0.011139 0.0384411 0.0535822 -19.6023 -7.9808 -0.0 0.0 -0.0 7.73781 -0.638375 -15.0528 -7.18962 24.8702 -53.2688 1.3093 32.9654 -0.387417 -25.0196 1.51642 -2.791 -2.00092 12.477 19.1204 0.0 0.0 0.0 36.8642 -18.8768 1.56692 -5.53788 0.188073 0.828762 -14.1808 3.83631 2.13189 15.2599 -0.0 -0.0 -0.0 0.0 -0.0 2.66892 0.427867 -1.35285 -24.1002 -0.224476 -3.66437 20.9533 -5.97129 2.84866 22.6161 -0.0 -0.0 0.0 0.0 0.0 
2586.37 698.008 -887.208 -31.2912 67.0583 32.6535 3.61181 -0.623346 -2.38936 3.61486 -0.470087 -2.42415 3.63335 -0.106853 -2.46697 3.6252 -0.495009 -2.41919 -4.42109 6.99465 11.3229 -4.07843 4.16777 12.737 -0.0 0.0 -0.0 5.58371 -14.0273 10.1585 -26.7929 8.20348 89.1825 0.502609 -13.9813 0.0616297 1.03162 0.035204 -0.127051 -0.463429 -18.6971 -11.0773 -0.0 0.0 -0.0 7.99594 -1.22515 -15.5548 -8.43903 21.6402 -53.5158 1.2707 32.1876 -0.366634 -26.0111 1.60063 -2.88616 -2.36356 14.8255 22.7228 0.0 0.0 0.0 37.0452 -19.7833 1.77071 -11.2059 0.296782 1.6914 -9.91634 3.67285 1.48388 19.2439 -0.0 -0.0 -0.0 0.0 -0.0 3.46491 0.0605088 -1.16595 -26.0729 -0.174339 -3.96295 22.2623 -6.20856 3.00741 22.3159 -0.0 -0.0 0.0 0.0 0.0 
2565.93 701.113 -891.254 -30.089 68.0452 31.5917 3.43894 -0.879592 -2.51335 3.44216 -0.717933 -2.56418 3.47304 -0.324162 -2.64293 3.46405 -0.737359 -2.55866 -4.8425 7.60399 12.1818 -4.44569 4.72833 13.7028 -0.0 0.0 -0.0 5.11832 -15.6033 9.0517 -26.3653 9.55772 90.4987 0.561286 -15.5385 0.0765802 0.972678 0.0332545 -0.119776 -0.282957 -19.2186 -10.0773 -0.0 0.0 -0.0 8.40728 -1.62998 -16.3614 -8.52266 20.127 -53.9884 1.10565 28.709 -0.282956 -25.5488 1.56116 -2.84197 -1.97376 12.6573 19.0048 0.0 0.0 0.0 34.9457 -18.6537 1.86016 -10.5743 0.288901 1.5948 -12.0293 0.305792 1.81742 16.0315 -0.0 -0.0 -0.0 0.0 -0.0 3.88457 0.369718 -0.739223 -26.968 -0.148205 -4.09783 23.4313 -7.60839 3.14715 22.9852 -0.0 -0.0 0.0 0.0 0.0 
